PathFileType	4	(X/Y/Z)	Patient4_TMGait_0pt4_03_left_02.trc.trc
DataRate	CameraRate	NumFrames	NumMarkers	Units	OrigDataRate	OrigDataStartFrame	OrigNumFrames
75.675675675676	75.675675675676	6	33	mm	75.675675675676	106	       141
Frame#	Time	Sacral			L.Shoulder			Chest			R.Shoulder			Neck			R.ASIS			L.ASIS			R.Thigh.Superior			R.Thigh.Lateral			R.Thigh.Inferior			R.Patella			L.Thigh.Superior			L.Thigh.Lateral			L.Thigh.Inferior			L.Patella			L.Shank.Superior			L.Shank.Lateral			L.Shank.Inferior			R.Shank.Superior			R.Shank.Lateral			R.Shank.Inferior			R.Heel			R.Midfoot.Superior			R.Midfoot.Lateral			R.Toe			L.Heel			L.Midfoot.Lateral			L.Midfoot.Superior			L.Toe			L.Elbow			L.Wrist			R.Elbow			R.Wrist			
		X1	Y1	Z1	X2	Y2	Z2	X3	Y3	Z3	X4	Y4	Z4	X5	Y5	Z5	X6	Y6	Z6	X7	Y7	Z7	X8	Y8	Z8	X9	Y9	Z9	X10	Y10	Z10	X11	Y11	Z11	X12	Y12	Z12	X13	Y13	Z13	X14	Y14	Z14	X15	Y15	Z15	X16	Y16	Z16	X17	Y17	Z17	X18	Y18	Z18	X19	Y19	Z19	X20	Y20	Z20	X21	Y21	Z21	X22	Y22	Z22	X23	Y23	Z23	X24	Y24	Z24	X25	Y25	Z25	X26	Y26	Z26	X27	Y27	Z27	X28	Y28	Z28	X29	Y29	Z29	X30	Y30	Z30	X31	Y31	Z31	X32	Y32	Z32	X33	Y33	Z33	

106	3.537500000000	813.832139490392	1009.318054849626	548.528499334434	954.126490004164	1444.897013443601	362.518610589481	1079.131580503088	1378.629437902487	508.106234869228	1015.955811556160	1442.864056616023	693.830851851648	951.448835444390	1502.128993287229	523.167085223201	1050.440135166439	950.176730520112	646.557655640567	1016.143100684859	972.598698726737	374.146964631408	1065.950520912861	741.488618903840	619.355863957373	973.210917735944	638.099306935666	681.574917457381	1042.286261206573	579.728185356521	602.479996284016	1033.072676626889	495.483674956809	608.633251981275	1101.868775453105	792.054481288909	386.414995096514	1053.149641381417	666.618723295702	302.584998181195	1163.320071323852	607.266346476128	349.776006354034	1183.746624908964	527.028626054990	336.436749227815	1137.953562548741	452.870916636264	328.593039287022	1017.395543281253	366.673089805682	284.442201077158	1057.331526122538	238.090882052100	328.471012998054	1003.826025494625	408.496057194044	612.942800823922	928.025322457365	304.334024166880	669.607662512393	972.285663207207	210.148833303867	604.904827436451	837.777815286545	45.597004018129	564.946400242332	1009.917586090765	97.220948499962	603.988740146724	920.668824467340	36.195478158013	639.416636677659	1129.190944776316	42.962666635231	629.816452311264	909.770147021983	104.117199685889	372.781079065633	970.766443158454	89.771901671702	284.163378826805	1066.725932680624	135.951351887747	299.974661409214	1176.997894683194	65.261721897606	253.874608734730	838.665839039749	1108.592809064782	268.418194559117	831.313146551097	846.848964978147	274.126075412032	1151.115270571144	1134.427731440166	827.404046403203	1401.134268141293	1110.610276898121	771.421690525106	
107	3.550714285714	812.910870334537	1009.375743173472	549.072062822939	953.522344242062	1444.677554710129	363.016258787321	1079.059580657650	1377.921421692440	507.928309966924	1016.951624602132	1442.297549200879	693.966365213917	951.736880505911	1501.700340123602	523.657395948298	1049.679076930826	949.508530285527	646.402549452059	1014.629112792424	972.074401855295	374.031591235161	1063.665975694251	740.659644761308	619.119581366629	970.414351797545	637.757073774149	681.682862811821	1038.680152491433	579.008451482402	602.371009508801	1028.830485520941	494.953513121920	608.545028726749	1099.302749516057	790.971858393005	386.523957548074	1050.772641595307	665.932343109396	302.139455042450	1160.006569372547	606.171676248078	350.936102602099	1181.450148407977	527.798162021621	337.220235475146	1139.069387732140	453.732038297697	328.197416203549	1023.925854444251	361.269685266843	282.686161573112	1071.260525846019	234.626126861100	325.662548871692	999.301119190554	408.099739783223	612.839505555113	923.333219662757	304.125418080970	669.603356167852	967.223130479770	209.855432482034	604.797643828457	832.435964298348	45.389928280140	564.970264393087	1004.510981426007	97.167023311758	603.946629914256	915.306462898973	36.164323899705	639.447475113116	1123.830090576052	43.010838606439	629.806627216767	931.897897022172	91.913367822948	368.549395441012	993.796002012441	81.744227622097	279.909321093048	1086.959809728926	133.119571618995	296.251273740392	1201.132683653200	69.020924341118	249.825812841468	831.811978460662	1110.561171291490	271.343372833645	818.743030964116	849.045727544157	279.610617357218	1156.747496427632	1136.729381864976	826.836350003937	1406.830493772341	1126.013257092881	768.706116691794	
108	3.563928571429	811.983945386143	1009.286959625209	549.478656694908	952.995408902819	1444.283235958682	363.293854407435	1078.991468539832	1377.060847177877	507.594370006386	1017.879487006083	1441.624556585484	693.906410248894	952.044008578092	1501.150619063948	523.918339747155	1048.919205919604	948.729450671378	646.094607891944	1013.041670538477	971.384069788862	373.767993548685	1061.479968953715	739.750943970385	618.760889962609	967.703881870068	637.342625797785	681.656045017789	1035.138926097936	578.221864409702	602.112579388168	1024.651971204400	494.353320319187	608.292483727511	1096.417498971102	789.492975692330	386.451696795154	1047.849421563207	664.917772676731	301.569194268427	1156.178416219945	604.662827308504	351.914016579389	1178.599739675145	528.220400652379	337.908865104767	1139.643830094213	454.467865650053	327.799656105579	1030.248314262934	356.042046592007	280.902793448409	1084.771045375037	231.774996818826	323.033900301518	994.808683507204	407.611884901185	612.593420913741	918.693321443338	303.857764146310	669.508802578498	962.173060892557	209.496396090424	604.591898623839	827.089618676768	45.122967679975	564.958922744320	999.080104850905	97.101189523981	603.862493504876	909.932054100565	36.135871273745	639.460141561277	1118.459876105202	43.066120875340	629.798354910004	953.937266707524	80.955350781190	364.495708602337	1016.647125983964	74.743934227695	275.963105730795	1106.782651837536	131.103817935521	292.851205210310	1224.487745443732	73.553393387013	246.438896767496	825.769685278486	1112.185145810182	274.026492360826	807.278483449309	851.023216340956	284.545712499357	1161.895528529268	1138.742926234502	826.029276867861	1411.391767378477	1140.649422029747	766.003118962501	
109	3.577142857143	811.072005890208	1009.084581437662	549.757768163093	952.526150451349	1443.750168477985	363.342959556384	1078.917933929144	1376.092296770976	507.093090098997	1018.737820122775	1440.886756322941	693.642242550966	952.357629529119	1500.519913595208	523.937574736523	1048.179695727872	947.877553137595	645.631129306804	1011.393132528876	970.574227312820	373.353335161152	1059.372306893211	738.784076982110	618.280393241782	965.036002765644	636.894631207219	681.495194234350	1031.615578992689	577.392237806938	601.718829831490	1020.495200541251	493.713301452383	607.894788638310	1093.277930079947	787.733642696523	386.167431054308	1044.449312882125	663.644133362718	300.887599283124	1152.004195211757	602.884297001733	352.577161963802	1175.353887671182	528.387452768919	338.425337370459	1139.770067147547	455.119966984808	327.396992714492	1036.286580300153	351.141072238863	279.177756036917	1097.632454900493	229.608688540441	320.694248511952	990.311192627907	407.071557618104	612.228080368166	914.064675276327	303.564535849930	669.339062366743	957.117954321351	209.103208157745	604.312848542831	821.738046030804	44.820282635375	564.922865764077	993.632551568622	97.030492868554	603.749140574629	904.548148043115	36.110516193895	639.459655448311	1113.081485360856	43.127770998761	629.793308405186	975.412770291631	71.458056311029	360.823171837875	1038.855030611153	68.877673024509	272.515803587800	1125.824300919346	129.926124614597	289.917099642353	1246.664088391986	78.727943213003	243.852419396698	820.542185897558	1113.446077324843	276.411350103892	796.988897821149	852.728754033592	288.844039098132	1166.547732521359	1140.470582241164	824.998012170886	1414.890234392732	1154.369548609718	763.341778405313	
110	3.590357142857	810.194396287653	1008.804837605640	549.914767877885	952.089927090471	1443.118645885758	363.159511886561	1078.829396314786	1375.064392455726	506.413639059930	1019.526394352240	1440.126504522544	693.166788409604	952.662623849402	1499.848318769342	523.707885171909	1047.479053518603	946.991608658926	645.008117878681	1009.704962700192	969.692975316591	372.781906097927	1057.319095925049	737.781800568180	617.676950473294	962.371447279068	636.451687899159	681.205541497185	1028.067879521324	576.545908174821	601.206138431165	1016.323153617455	493.064131388426	607.376626712896	1089.975589404467	785.817227283918	385.644524110218	1040.677908157142	662.176093535180	300.125202050309	1147.673886650112	600.973147126329	352.826739317251	1171.885275749092	528.380956840536	338.719165155225	1139.545740239613	455.707388116375	326.998287841220	1041.935253372420	346.680478527597	277.609777159412	1109.595104372111	228.122980082446	318.739039025892	985.777947660914	406.520622601213	611.771940727383	909.412313555347	303.280011997747	669.112922979141	952.043164142187	208.708233739272	603.988284971920	816.381500793775	44.507858926228	564.874116849851	988.176642093856	96.960845138095	603.620482030900	899.158294456105	36.088597998301	639.451695314896	1107.696981182043	43.194299274905	629.791863773866	995.798477457828	63.532639797148	357.722589427754	1059.898785247820	64.156704846000	269.732746300966	1143.682230691455	129.513090993632	287.562790431507	1267.239633213897	84.301452453707	242.140358921770	816.119450980609	1114.341379806764	278.437707388060	787.952519365708	854.119420483417	292.427223246427	1170.683504927508	1141.917007565722	823.761687935550	1417.409191498304	1167.045161819402	760.745471207676	
111	3.603571428571	809.368832727244	1008.483219630742	549.948326331410	951.659273603731	1442.429090091375	362.744360986656	1078.716844397884	1374.025216565766	505.546516354868	1020.245856093538	1439.382484225473	692.475243729859	952.942555895561	1499.171676783193	523.228101737634	1046.833150395932	946.107310827002	644.220461444612	1008.008432991605	968.785033025035	372.045828631967	1055.297065510428	736.765888686955	616.949035894970	959.680324662538	636.047997548844	680.795757299852	1024.465557832805	575.708867581123	600.592174299536	1012.109966270280	492.433433511078	606.765920753759	1086.626198461210	783.865478125604	384.865583444742	1036.673110311516	660.569770716726	299.329366502048	1143.384198013515	599.047493422692	352.614106919844	1168.370521582154	528.263619330310	338.774274516442	1139.064452891506	456.222659915945	326.626721181635	1047.065113313117	342.729402342092	276.303825710357	1120.400615016866	227.239743150208	317.248440106316	981.190172706740	405.998341936988	611.255048669411	904.712173516103	303.035697967111	668.850559573764	946.939637624237	208.341100980882	603.645699010881	811.021271167401	44.210431560019	564.824567611870	982.720657713025	96.896588568384	603.490210784512	893.766631686755	36.070459808990	639.441969542164	1102.309173168276	43.263302626271	629.793575145495	1014.545654506309	57.184890639837	355.362031396090	1079.226202845010	60.502882266291	267.744854847814	1159.940063353206	129.703919881369	285.871014340597	1285.785091779414	89.935487388662	241.310806686204	812.478036205248	1114.882465170196	280.045807362669	780.251012144785	855.161676511611	295.229132154183	1174.276072250501	1143.086432195770	822.342499707239	1419.039873407515	1178.570796991426	758.233055264655	
